<?xml version="1.0" encoding="UTF-8"?>
<svg version="1.2" baseProfile="tiny"
     xmlns="http://www.w3.org/2000/svg"
     viewBox="0 0 512 512"
     width="512" height="512">
  <!-- Tklesson BIMI-ready logo -->
  <rect width="512" height="512" rx="60" ry="60" fill="#1a3a8f"/>
  <g transform="translate(0,512) scale(0.16,-0.20)" fill="#ffffff" stroke="none">
    <path d="M841 2244 c-108 -29 -213 -107 -266 -199 -53 -91 -55 -116 -55 -741
0 -360 4 -596 11 -624 33 -143 149 -268 288 -310 64 -20 88 -20 707 -18 l640
3 75 37 c93 46 158 112 202 206 l32 67 3 619 c3 674 3 675 -54 772 -30 52
-108 126 -160 152 -102 52 -103 52 -758 51 -501 0 -621 -3 -665 -15z m1229
-27 c78 -3 105 -8 150 -30 101 -48 172 -126 207 -227 10 -26 13 -190 13 -650
1 -595 1 -617 -19 -669 -42 -110 -123 -191 -237 -234 -58 -22 -68 -22 -649
-25 -409 -2 -608 1 -650 9 -153 29 -273 136 -316 284 -5 17 -9 298 -9 625 0
643 0 653 54 739 35 55 109 118 173 148 57 27 61 27 328 33 273 5 780 4 955
-3z"/>
    <path d="M797 1979 c-27 -16 -46 -61 -53 -133 -10 -99 -1 -106 138 -106 87 0
110 -3 114 -15 6 -15 -9 -151 -26 -235 -8 -37 -29 -177 -45 -290 -2 -14 -6
-44 -10 -67 -13 -84 9 -101 140 -104 80 -2 89 0 110 22 25 25 23 18 75 344 45
280 52 320 62 333 12 14 76 16 97 3 14 -9 8 -57 -44 -366 -7 -44 -16 -102 -20
-128 -4 -27 -8 -58 -10 -69 -6 -27 -7 -88 -3 -113 3 -18 -3 -20 -47 -21 -69
-1 -123 -12 -170 -34 -144 -67 -217 -100 -221 -100 -4 0 -95 -40 -161 -72 -45
-21 -93 -70 -93 -94 0 -8 11 -19 25 -24 14 -5 170 -10 348 -10 l322 -1 60 -26
c78 -33 145 -34 205 -2 45 24 47 24 393 27 215 1 356 6 368 12 10 6 19 20 19
31 0 46 -65 83 -389 221 -58 25 -107 50 -109 56 -3 9 26 12 98 12 96 0 136 9
152 33 10 16 -11 59 -87 182 -38 61 -90 147 -117 193 l-49 83 38 47 c21 26 95
114 166 195 135 159 147 183 102 213 -19 13 -45 15 -129 12 -123 -4 -115 2
-253 -170 -48 -59 -91 -108 -96 -108 -10 0 -4 72 15 156 14 65 6 97 -27 112
-34 16 -861 16 -888 1z"/>
  </g>
</svg>
